<svg id="visual" viewBox="-100 -200 500 500" xmlns="http://www.w3.org/2000/svg" xmlns:xlink="http://www.w3.org/1999/xlink" version="1.1"><g transform="translate(228.3810335046384 230.5486489070729)"><path d="M118.7 -201.9C151 -186.9 172.5 -149.4 200.9 -112.1C229.3 -74.7 264.7 -37.3 263.9 -0.4C263.2 36.5 226.4 73 200.1 114C173.8 155 157.9 200.5 126.3 225.9C94.7 251.3 47.3 256.7 4.9 248.1C-37.5 239.6 -75 217.2 -111.2 194.5C-147.5 171.7 -182.4 148.6 -201.8 116.1C-221.2 83.7 -225.1 41.8 -216 5.3C-206.8 -31.3 -184.6 -62.5 -168.4 -100.6C-152.3 -138.7 -142.1 -183.7 -115.1 -201.7C-88 -219.8 -44 -210.9 -0.4 -210.2C43.2 -209.4 86.3 -216.9 118.7 -201.9" fill="#f7c11c"></path></g></svg>